<svg width="32" height="32" viewBox="0 0 32 32" fill="none" xmlns="http://www.w3.org/2000/svg">
<mask id="mask0_5676_634" style="mask-type:alpha" maskUnits="userSpaceOnUse" x="0" y="0" width="32" height="32">
<rect width="32" height="32" fill="#D9D9D9"/>
</mask>
<g mask="url(#mask0_5676_634)">
<path d="M7.53268 23.2665C8.84379 22.3258 10.1919 21.598 11.5771 21.0832C12.9623 20.5684 14.4364 20.311 15.9993 20.311C17.5623 20.311 19.0401 20.5684 20.4327 21.0832C21.8253 21.598 23.1771 22.3258 24.4882 23.2665C25.3994 22.1628 26.0642 21.0109 26.4827 19.8109C26.9012 18.6109 27.1105 17.3406 27.1105 15.9998C27.1105 12.8665 26.042 10.2313 23.9049 8.09427C21.7679 5.95723 19.1327 4.8887 15.9993 4.8887C12.866 4.8887 10.2308 5.95723 8.09378 8.09427C5.95674 10.2313 4.88822 12.8665 4.88822 15.9998C4.88822 17.3406 5.10118 18.6109 5.52712 19.8109C5.95305 21.0109 6.62157 22.1628 7.53268 23.2665ZM15.9952 17.1109C14.7017 17.1109 13.6123 16.667 12.7271 15.779C11.8419 14.8911 11.3993 13.8004 11.3993 12.5068C11.3993 11.2133 11.8433 10.1239 12.7312 9.23874C13.6192 8.35354 14.7099 7.91094 16.0035 7.91094C17.297 7.91094 18.3864 8.35492 19.2716 9.24287C20.1568 10.1308 20.5993 11.2215 20.5993 12.5151C20.5993 13.8086 20.1554 14.898 19.2675 15.7832C18.3795 16.6683 17.2888 17.1109 15.9952 17.1109ZM16.0097 29.3332C14.1732 29.3332 12.4438 28.9832 10.8216 28.2832C9.19936 27.5832 7.78454 26.6295 6.57712 25.4221C5.36972 24.2146 4.41602 22.8016 3.71602 21.1828C3.01602 19.564 2.66602 17.8344 2.66602 15.9939C2.66602 14.1534 3.01602 12.4258 3.71602 10.8109C4.41602 9.19614 5.36972 7.78503 6.57712 6.5776C7.78454 5.3702 9.19763 4.4165 10.8164 3.7165C12.4351 3.0165 14.1648 2.6665 16.0052 2.6665C17.8458 2.6665 19.5734 3.0165 21.1882 3.7165C22.803 4.4165 24.2142 5.3702 25.4216 6.5776C26.629 7.78503 27.5827 9.19638 28.2827 10.8117C28.9827 12.427 29.3327 14.1529 29.3327 15.9894C29.3327 17.826 28.9827 19.5554 28.2827 21.1776C27.5827 22.7998 26.629 24.2146 25.4216 25.4221C24.2142 26.6295 22.8028 27.5832 21.1875 28.2832C19.5722 28.9832 17.8463 29.3332 16.0097 29.3332ZM15.9993 27.111C17.2067 27.111 18.3734 26.935 19.4993 26.5832C20.6253 26.2313 21.7105 25.6517 22.7549 24.8443C21.7105 24.0961 20.6216 23.5239 19.4882 23.1276C18.3549 22.7313 17.1919 22.5332 15.9993 22.5332C14.8067 22.5332 13.6438 22.7313 12.5105 23.1276C11.3771 23.5239 10.2882 24.0961 9.24378 24.8443C10.2882 25.6517 11.3734 26.2313 12.4993 26.5832C13.6253 26.935 14.7919 27.111 15.9993 27.111ZM15.9993 14.8887C16.6956 14.8887 17.266 14.6665 17.7105 14.2221C18.1549 13.7776 18.3771 13.2072 18.3771 12.5109C18.3771 11.8146 18.1549 11.2443 17.7105 10.7998C17.266 10.3554 16.6956 10.1332 15.9993 10.1332C15.3031 10.1332 14.7327 10.3554 14.2882 10.7998C13.8438 11.2443 13.6215 11.8146 13.6215 12.5109C13.6215 13.2072 13.8438 13.7776 14.2882 14.2221C14.7327 14.6665 15.3031 14.8887 15.9993 14.8887Z" fill="#95E3FA"/>
</g>
</svg>
