<svg width="38" height="38" viewBox="0 0 38 38" fill="none" xmlns="http://www.w3.org/2000/svg">
<g clip-path="url(#clip0_5648_640)">
<path d="M20.155 37.7001C17.5456 37.8175 16.3766 37.5196 14.2501 37.1131C10.1989 35.5948 14.2443 30.4288 16.8337 29.3572C19.4232 28.2856 21.6709 28.2528 24.9763 28.4118C33.625 28.8277 35.3905 29.2564 37.2508 24.0095C36.5659 26.5302 35.3573 28.8782 33.7037 30.9003C32.0502 32.9223 29.9889 34.573 27.6543 35.7447C25.3198 36.9164 22.7644 37.5826 20.155 37.7001Z" fill="url(#paint0_linear_5648_640)"/>
<path d="M34.5511 29.8818C36.0616 27.7507 37.1302 25.5449 37.414 23.4682C38.1234 19.0677 31.7222 16.9195 27.21 22.2366C25.9781 23.6883 25.027 26.1015 23.7371 28.7808C21.8421 32.717 19.3661 38.1272 14.0198 37.0743C16.5102 37.862 18.9071 37.8942 21.5023 37.5975C24.0974 37.3009 26.6009 36.4604 28.8493 35.1309C31.0977 33.8014 33.0406 32.0128 34.5511 29.8818Z" fill="url(#paint1_linear_5648_640)"/>
<path d="M34.9483 8.85736C36.3547 11.0585 36.6812 12.2198 37.3924 14.2646C38.1031 18.5322 31.6065 17.6118 29.3838 15.9051C27.161 14.1984 26.0088 12.2682 24.4937 9.3261C20.5296 1.62819 20.0181 -0.115108 14.544 0.897251C17.0695 0.230015 19.7072 0.102725 22.2851 0.523702C24.863 0.944681 27.3232 1.90446 29.5052 3.34041C31.6872 4.77637 33.5419 6.65623 34.9483 8.85736Z" fill="url(#paint2_linear_5648_640)"/>
<path d="M20.9796 0.298049C18.3788 0.0554204 15.9342 0.23294 13.9938 1.02545C9.82821 2.61137 11.1683 9.2291 18.0292 10.4782C19.9024 10.8192 22.4678 10.4363 25.4331 10.2137C29.7895 9.88675 35.7128 9.32589 37.4741 14.4824C36.9111 11.9317 35.7405 9.83993 34.186 7.74078C32.6315 5.64163 30.6519 3.89381 28.3763 2.61137C26.1007 1.32893 23.5803 0.540678 20.9796 0.298049Z" fill="url(#paint3_linear_5648_640)"/>
<path d="M2.52953 10.3849C3.73255 8.0664 4.57505 7.20304 5.99029 5.56467C9.33076 2.81534 11.782 8.90177 11.4153 11.6801C11.0486 14.4584 9.95314 16.4213 8.16275 19.2045C3.47824 26.4865 2.22425 27.8011 5.838 32.0356C3.99745 30.1821 2.56835 27.9614 1.64396 25.5184C0.719576 23.0754 0.320663 20.4649 0.473253 17.8573C0.625842 15.2496 1.32651 12.7035 2.52953 10.3849Z" fill="url(#paint4_linear_5648_640)"/>
<path d="M2.10022 26.7616C3.19049 29.1353 4.56654 31.1636 6.22306 32.4478C9.67929 35.2623 14.7403 30.7928 12.3917 24.2267C11.7504 22.4339 10.136 20.4036 8.46066 17.9469C5.99931 14.3376 2.55197 9.48837 6.13698 5.38473C4.20953 7.14765 2.98325 9.20728 1.94258 11.6031C0.901918 13.9989 0.378073 16.5872 0.405238 19.1992C0.432403 21.8111 1.00995 24.3879 2.10022 26.7616Z" fill="url(#paint5_linear_5648_640)"/>
</g>
<defs>
<linearGradient id="paint0_linear_5648_640" x1="19.281" y1="26.8312" x2="18.7449" y2="45.1407" gradientUnits="userSpaceOnUse">
<stop stop-color="#0061CF"/>
<stop offset="1" stop-color="#011328"/>
</linearGradient>
<linearGradient id="paint1_linear_5648_640" x1="21.5676" y1="41.521" x2="17.0754" y2="26.5892" gradientUnits="userSpaceOnUse">
<stop stop-color="#4103C7"/>
<stop offset="1" stop-color="#CA1EFF"/>
</linearGradient>
<linearGradient id="paint2_linear_5648_640" x1="25.9726" y1="15.0487" x2="42.0971" y2="6.35822" gradientUnits="userSpaceOnUse">
<stop stop-color="#0061CF"/>
<stop offset="1" stop-color="#011328"/>
</linearGradient>
<linearGradient id="paint3_linear_5648_640" x1="11.0414" y1="7.76397" x2="15.5707" y2="-1.24138" gradientUnits="userSpaceOnUse">
<stop stop-color="#71B1FF"/>
<stop offset="1" stop-color="#3752FF"/>
</linearGradient>
<linearGradient id="paint4_linear_5648_640" x1="12.3793" y1="15.0625" x2="-3.20917" y2="5.44351" gradientUnits="userSpaceOnUse">
<stop stop-color="#0061CF"/>
<stop offset="1" stop-color="#011328"/>
</linearGradient>
<linearGradient id="paint5_linear_5648_640" x1="12.4448" y1="32.0673" x2="2.63578" y2="32.9604" gradientUnits="userSpaceOnUse">
<stop stop-color="#00FF9D"/>
<stop offset="1" stop-color="#138100"/>
</linearGradient>
<clipPath id="clip0_5648_640">
<rect width="38" height="38" fill="white"/>
</clipPath>
</defs>
</svg>
